<?xml version="1.0" encoding="UTF-8" standalone="no"?>
<!DOCTYPE svg  PUBLIC '-//W3C//DTD SVG 1.1//EN'  'http://www.w3.org/Graphics/SVG/1.1/DTD/svg11.dtd'>
<svg xmlns="http://www.w3.org/2000/svg">
<defs>
<font id="UniSansHeavyCaps-Regular" horiz-adv-x="1204">
<font-face underline-position="-102" font-weight="900" descent="-410" panose-1="0 0 5 0 0 0 0 0 0 0" units-per-em="2048" unicode-range="U+000D-2122" bbox="-66 -520 2085 1925" font-variant="small-caps" x-height="1450" underline-thickness="102" font-family="UniSansHeavyCaps" ascent="1638" cap-height="1450"/>
<missing-glyph horiz-adv-x="2048"/>
<glyph glyph-name=".notdef" horiz-adv-x="2048"/>
<glyph glyph-name="glyph1" horiz-adv-x="2048"/>
<glyph glyph-name="glyph1" horiz-adv-x="2048"/>
<glyph glyph-name="uni000D" horiz-adv-x="2048" unicode=""/>
<glyph glyph-name="space" horiz-adv-x="372" unicode=" "/>
<glyph glyph-name="exclam" horiz-adv-x="595" unicode="!" d="M96 182q0 86 59 146.5t144 60.5q86 0 146.5 -60.5t60.5 -146.5q0 -85 -60.5 -143.5t-146.5 -58.5q-85 0 -144 58.5t-59 143.5zM88 1458h418l-21 -1007h-376z"/>
<glyph glyph-name="quotedbl" horiz-adv-x="946" unicode='&quot;' d="M516 858v594h354l-41 -594h-313zM96 858v594h355l-43 -594h-312z"/>
<glyph glyph-name="numbersign" horiz-adv-x="1327" unicode="#" d="M596 618h121l33 121h-119zM45 346l88 299h152l18 68h-151l92 311h151l97 330h323l-96 -330h86l96 330h338l-98 -330h135l-90 -311h-137l-19 -68h135l-88 -299h-137l-102 -348h-324l100 348h-86l-100 -348h-334l103 348h-152z"/>
<glyph glyph-name="dollar" horiz-adv-x="1167" unicode="$" d="M713 334q37 20 57.5 49.5t20.5 60.5v2v7q0 87 -78 114v-233zM397 1010v-7q0 -87 78 -114v233q-37 -20 -57.5 -49.5t-20.5 -60.5v-2zM49 283l262 180q38 -53 71.5 -73.5t78.5 -27.5v199q-387 91 -387 444v9q9 163 116.5 270t270.5 143v121h264v-118q110 -14 192 -69 t162 -175l-245 -156q-36 61 -109 74v-230q72 -17 127 -38.5t108 -59t86.5 -86t51 -114.5t17.5 -139q0 -15 -1 -31q-13 -158 -121 -262.5t-268 -143.5v-133h-264v131q-125 4 -230.5 78.5t-181.5 206.5z"/>
<glyph glyph-name="percent" horiz-adv-x="1515" unicode="%" d="M1081 352q0 -121 72 -121q68 0 68 119q0 123 -68 123q-32 0 -52 -30.5t-20 -90.5zM852 354q0 162 84.5 260.5t218.5 98.5q149 0 229 -94.5t80 -268.5q0 -166 -86.5 -264t-222.5 -98q-146 0 -224.5 93.5t-78.5 272.5zM283 1110q0 -121 71 -121q68 0 68 119q0 123 -68 123 q-32 0 -51.5 -30t-19.5 -91zM113 14l1007 1557l264 -176l-1007 -1551zM53 1112q0 162 84.5 260t218.5 98q149 0 229.5 -94t80.5 -268q0 -166 -87 -264.5t-223 -98.5q-146 0 -224.5 94t-78.5 273z"/>
<glyph glyph-name="ampersand" horiz-adv-x="1396" unicode="&amp;" d="M498 1079q0 -17 12.5 -40.5t24.5 -39.5t38 -47q52 35 76.5 65.5t24.5 67.5q0 36 -23.5 62.5t-56.5 26.5q-39 0 -67.5 -28t-28.5 -67zM411.5 418q1.5 -22 24.5 -53q39 -55 76 -55l37 -1q72 0 121 56l-178 208q-43 -22 -62.5 -58t-19.5 -70q0 -5 1.5 -27zM59 461 q0 127 54.5 213t162.5 151q-61 64 -84.5 131t-23.5 124q0 15 4 57t39 108t91 114.5t131 75.5t155 27h12q161 -5 277 -109t116 -268q0 -117 -46 -195t-130 -138l121 -150l131 113l205 -262l-135 -111l272 -340h-430l-98 117q-73 -64 -163.5 -96.5t-179.5 -32.5q-1 0 -47 0.5 t-133 32.5t-153.5 90t-107 148.5t-40.5 199.5z"/>
<glyph glyph-name="quotesingle" horiz-adv-x="524" unicode="&apos;" d="M96 856v594h348l-30 -594h-318z"/>
<glyph glyph-name="parenleft" horiz-adv-x="659" unicode="(" d="M59 711q0 247 84.5 491t245.5 426l242 -158q-248 -374 -248 -759q0 -5 2 -203.5t252 -583.5l-260 -174q-155 218 -236.5 469.5t-81.5 491.5z"/>
<glyph glyph-name="parenright" horiz-adv-x="647" unicode=")" d="M25 -80q159 255 202.5 452.5t43.5 332.5q0 125 -39.5 318t-206.5 425l233 156q162 -183 246 -416t84 -477q0 -241 -81 -490t-237 -467z"/>
<glyph glyph-name="asterisk" horiz-adv-x="976" unicode="*" d="M49 1010l94 323l209 -98l-30 219h335l-39 -217l213 92l97 -325l-230 -29l166 -160l-264 -203l-111 207l-106 -207l-274 199l165 172z"/>
<glyph glyph-name="plus" horiz-adv-x="1159" unicode="+" d="M55 483v348h359v349h346v-349h344v-348h-344v-350h-346v350h-359z"/>
<glyph glyph-name="comma" horiz-adv-x="589" unicode="," d="M-45 -305l174 522h385l-205 -522h-354z"/>
<glyph glyph-name="hyphen" horiz-adv-x="827" unicode="-" d="M94 420v348h639v-348h-639z"/>
<glyph glyph-name="period" horiz-adv-x="526" unicode="." d="M59 195q0 85 59 143.5t144 58.5t145 -59t60 -143q0 -86 -60 -146.5t-145 -60.5t-144 60.5t-59 146.5z"/>
<glyph glyph-name="slash" horiz-adv-x="1007" unicode="/" d="M41 -27l604 1592l322 -113l-602 -1595z"/>
<glyph glyph-name="zero" horiz-adv-x="1220" unicode="0" d="M434 420q0 -60 52.5 -94.5t123.5 -34.5q69 0 122.5 35t53.5 94v594q0 62 -54 98.5t-122 36.5q-69 0 -122.5 -37t-53.5 -98v-594zM86 424v600q0 90 31 165t82.5 126t120 86.5t141.5 52t149 16.5t150 -16.5t142 -52t119.5 -86.5t82.5 -126t31 -165v-600q0 -89 -31 -163.5 t-82.5 -125.5t-119.5 -86.5t-142 -52t-150 -16.5t-149 16.5t-141.5 52t-120 86.5t-82.5 125.5t-31 163.5z"/>
<glyph glyph-name="one" horiz-adv-x="763" unicode="1" d="M-2 1044l385 406h276v-1450h-329v973l-140 -96z"/>
<glyph glyph-name="two" horiz-adv-x="1140" unicode="2" d="M33 193l590 663q61 69 61 136q0 23 -7 45q-20 63 -84 88q-29 11 -58 11q-51 0 -103 -34q-56 -37 -96 -111l-275 150q86 164 222 246.5t292 82.5q116 0 210 -37.5t153.5 -100.5t91 -142.5t31.5 -165.5q0 -237 -180 -406l-320 -303l170 35h328v-348h-934z"/>
<glyph glyph-name="three" horiz-adv-x="1105" unicode="3" d="M33 242l237 219q38 -61 101.5 -92t132.5 -31q76 0 129 34t53 91q0 59 -41.5 99t-116.5 40h-225v293h217q44 0 73.5 33t29.5 76q0 37 -17 69q-32 49 -73.5 57t-62.5 8q-43 0 -98 -20.5t-100 -70.5l-213 188q89 110 211 172.5t246 62.5q70 0 133 -13t122 -41t106 -78.5 t75 -120.5q30 -75 31.5 -119t1.5 -50q0 -77 -32.5 -153.5t-102.5 -120.5q53 -27 92 -68.5t60.5 -88.5t31.5 -92.5t10 -90.5q0 -83 -29 -156t-79.5 -126.5t-117 -93t-143.5 -59t-157 -19.5q-148 0 -277.5 65.5t-207.5 196.5z"/>
<glyph glyph-name="four" horiz-adv-x="1175" unicode="4" d="M397 608h256l4 371zM0 530l676 920h301v-838h135v-297h-135v-315h-350v315h-510z"/>
<glyph glyph-name="five" horiz-adv-x="1107" unicode="5" d="M57 248l260 205q49 -60 106 -81t98 -21q18 0 55.5 7t79 48.5t44.5 103.5q1 10 1 20q0 90 -51.5 142.5t-139.5 52.5q-145 0 -236 -121h-168v846h861v-322h-568v-163q107 36 155 37h52q96 0 178.5 -38t143.5 -100.5t96 -152.5t35 -193q0 -104 -33 -198t-97.5 -171 t-172 -123t-244.5 -46q-131 0 -251 66t-204 202z"/>
<glyph glyph-name="six" horiz-adv-x="1196" unicode="6" d="M434 424q0 -47 37.5 -79t78 -37.5t68.5 -5.5q26 0 66 5t77.5 37.5t37.5 79.5v108q0 44 -37.5 74t-77.5 35t-66 5q-28 0 -68.5 -5.5t-78 -35.5t-37.5 -73v-108zM84 436v578q0 105 46.5 193t123.5 144.5t173 87.5t198 31q148 0 270 -68t186 -200l-256 -147 q-32 51 -85.5 76.5t-114.5 25.5q-78 0 -134.5 -39.5t-56.5 -105.5v-150q68 49 138 66t126 17q23 0 73.5 -5t124.5 -38.5t129.5 -86.5t89.5 -129.5t34 -163.5v-86q0 -108 -44.5 -196.5t-118.5 -144t-168 -85.5t-197 -30t-198 29.5t-171.5 85t-122 144t-45.5 197.5z"/>
<glyph glyph-name="seven" horiz-adv-x="1085" unicode="7" d="M47 1102v348h936l98 -197l-559 -1253h-393l471 1102h-553z"/>
<glyph glyph-name="eight" horiz-adv-x="1228" unicode="8" d="M465 1056.5q-7 -30.5 1.5 -60.5t25.5 -55t49 -40.5t73 -15.5q46 0 81.5 15t53.5 39.5t26.5 54t0.5 60t-24.5 55.5t-48 42.5t-70.5 19.5h-31q-39 -1 -69 -17t-45.5 -41.5t-22.5 -56zM457 383q30 -58 143 -61h35q115 0 146 60t31 98q0 42 -33.5 98t-117.5 56q-10 0 -20 -1 h-47h-7q-91 0 -125.5 -57t-34.5 -98q0 -37 30 -95zM61 436q0 89 50.5 178.5t144.5 159.5q-66 44 -96.5 115t-30.5 145q0 97 32 174.5t81.5 125.5t114 79.5t125.5 44t120 12.5h29q74 0 141.5 -15.5t128.5 -50t105.5 -85.5t71 -128t26.5 -171q0 -56 -33.5 -130.5t-91.5 -113.5 q92 -47 140 -138.5t48 -173.5v-7q-5 -228 -139 -352.5t-397 -124.5h-29q-252 0 -396.5 119.5t-144.5 336.5z"/>
<glyph glyph-name="nine" d="M406 926q0 -44 37.5 -74t77 -35t65.5 -5l54 6q55 5 92.5 35t37.5 73v108q0 43 -37.5 73t-78 35.5t-68.5 5.5l-52 -5q-53 -5 -90.5 -35t-37.5 -74v-108zM55 936v86q0 108 44.5 195.5t119 141.5t168.5 82.5t197 28.5t197.5 -28.5t170 -82t121.5 -141t47 -196.5v-578 q0 -108 -46 -197.5t-122 -146.5t-171 -88.5t-197 -31.5q-160 0 -294 70t-200 206l260 172q37 -62 99 -91.5t131 -29.5q77 0 133.5 39.5t56.5 99.5v150q-68 -49 -138.5 -67t-128.5 -18q-21 0 -71 5t-124 39t-129.5 87.5t-89.5 130t-34 163.5z" unicode="9"/>
<glyph glyph-name="colon" horiz-adv-x="567" unicode=":" d="M80 805q0 84 60 142.5t145 58.5t143.5 -58t58.5 -143q0 -86 -58.5 -146.5t-143.5 -60.5t-145 60.5t-60 146.5zM80 217q0 88 59.5 146.5t145.5 58.5q85 0 143.5 -58t58.5 -147q0 -85 -59 -145t-143 -60q-85 0 -145 60t-60 145z"/>
<glyph glyph-name="semicolon" horiz-adv-x="598" unicode=";" d="M92 782q0 86 57.5 143.5t147.5 57.5q87 0 144 -58t57 -143q0 -88 -57 -147.5t-144 -59.5q-90 0 -147.5 59t-57.5 148zM14 -262l125 522h383l-188 -522h-320z"/>
<glyph glyph-name="less" horiz-adv-x="911" unicode="&lt;" d="M51 487v224l750 481v-408l-330 -186q129 -68 330 -178v-408z"/>
<glyph glyph-name="equal" horiz-adv-x="1083" unicode="=" d="M96 653v318h889v-318h-889zM96 236v319h889v-319h-889z"/>
<glyph glyph-name="greater" horiz-adv-x="911" unicode="&gt;" d="M109 12v408l346 178l-346 186v408l751 -481v-224z"/>
<glyph glyph-name="question" horiz-adv-x="1005" unicode="?" d="M240 133q0 81 53.5 132.5t132.5 51.5q78 0 131 -51.5t53 -132.5q0 -78 -53.5 -132t-130.5 -54q-78 0 -132 54t-54 132zM43 1196q45 86 110.5 147t137 90.5t121 33.5t68.5 4q57 0 120.5 -15.5t129.5 -55t115 -95.5t78 -132t29 -161q0 -55 -13 -107.5t-41 -101.5 t-68.5 -88.5t-99.5 -68t-130 -38.5l-20 -239h-308l-20 467q74 -28 138 -28q14 0 58.5 4.5t94 53.5t49.5 123q0 53 -41.5 87.5t-75 39t-45.5 4.5q-44 0 -96 -23t-82 -79z"/>
<glyph glyph-name="at" horiz-adv-x="1556" unicode="@" d="M1110 489q77 34 116.5 124t39.5 183q0 7 -1.5 60.5t-39.5 120.5l-19 37zM655 758q-14 -47 -14 -89q0 -53 22 -100q10 -20 23 -37q29 -32 82 -32q60 0 92 32l66 302q-63 67 -123 67q-28 0 -56 -15q-64 -34 -92 -128zM70 698q8 111 45 219t102.5 204t151.5 169.5t200 116.5 t240 43q107 0 215 -27q133 -39 248 -125.5t170 -191.5q61 -118 63 -194.5t2 -85.5q0 -135 -51.5 -264t-150.5 -214q-49 -45 -124 -74.5t-149 -29.5q-89 0 -149 43q-62 -39 -146 -39q-161 0 -261.5 112.5t-100.5 282.5q0 127 52.5 241.5t145 185.5t199.5 71q113 0 215 -82 l37 43l147 -37q-49 69 -148.5 106t-195.5 37q-119 0 -218 -50t-161.5 -131.5t-96.5 -180.5t-34 -201q0 -160 78.5 -276t175.5 -145t167 -29q84 0 180 26l55 -196q-136 -43 -256 -43q-135 0 -256.5 52t-210.5 143.5t-135 218.5t-46 263q0 19 1 39z"/>
<glyph glyph-name="A" horiz-adv-x="1327" unicode="A" d="M553 616h217l-100 424h-11zM-12 0l506 1450h333l519 -1450h-394l-94 291h-387l-90 -291h-393z"/>
<glyph glyph-name="B" horiz-adv-x="1277" unicode="B" d="M483 883h213q43 0 74.5 19t45.5 48q15 30 16 64q0 32 -14 60q-14 29 -46 48t-76 19h-213v-258zM483 322h213q63 0 106 30q42 30 52 74q5 21 5 43q1 23 -5 45q-10 44 -53 74t-105 30h-213v-296zM115 0v1450h581q138 0 246 -52t168 -154q57 -95 58 -219q0 -8 -1 -17 q-2 -60 -40 -130t-109 -106q57 -29 99.5 -69t64.5 -82q21 -41 34 -87q12 -41 12 -77v-8q-2 -39 -5 -74q-60 -375 -516 -375h-592z"/>
<glyph glyph-name="C" horiz-adv-x="1191" unicode="C" d="M80 475v500q0 119 49 215t131 156t184 92t213 32q71 0 139 -16.5t137.5 -52.5t130.5 -103.5t103 -160.5l-299 -121q-35 64 -107 94q-55 23 -109 23h-4q-14 1 -28 -1q-69 -8 -121.5 -50t-52.5 -107v-500q0 -50 34.5 -88.5t86.5 -52.5q42 -11 86 -11q11 1 22 1q56 4 106 38 t73 91l320 -148q-44 -85 -106.5 -149.5t-133 -102t-141.5 -55.5t-142 -18q-109 0 -210 31.5t-182 91.5t-130 156.5t-49 215.5z"/>
<glyph glyph-name="D" horiz-adv-x="1302" unicode="D" d="M483 344h187q91 0 136.5 42.5t45.5 115.5v452q0 72 -46 113t-136 41h-187v-764zM115 0v1450h542q89 0 170.5 -17.5t153.5 -56t125 -94.5t84 -137t31 -180v-488q0 -97 -31 -177.5t-84 -135.5t-125 -93q-71 -38 -153 -55q-77 -16 -161 -16h-10h-542z"/>
<glyph glyph-name="E" d="M115 0v1450h1009v-344h-639v-225h588v-318h-588v-217h639v-346h-1009z" unicode="E"/>
<glyph glyph-name="F" horiz-adv-x="1179" unicode="F" d="M115 0v1450h1009v-348h-639v-260h559v-342h-559v-500h-370z"/>
<glyph glyph-name="G" horiz-adv-x="1275" unicode="G" d="M80 481v498q0 119 49 214.5t130.5 154.5t182.5 90.5t211 31.5q74 0 145 -16.5t139.5 -51t126 -96.5t93.5 -145l-307 -141q-23 56 -72.5 89t-105.5 35q-7 1 -15 1q-47 0 -91 -13q-52 -16 -86 -57t-34 -96v-498q0 -54 31.5 -94t78.5 -57.5t102 -17.5t102 18t78.5 57.5 t31.5 93.5v54h-231v307h584v-361q0 -121 -48 -218.5t-128.5 -158t-181.5 -92.5t-212 -32q-110 0 -211 32t-182.5 92.5t-130.5 158t-49 218.5z"/>
<glyph glyph-name="H" horiz-adv-x="1384" unicode="H" d="M115 0v1450h368v-549h418v549h369v-1450h-369v547h-418v-547h-368z"/>
<glyph glyph-name="I" horiz-adv-x="595" unicode="I" d="M115 0v1450h366v-1450h-366z"/>
<glyph glyph-name="J" horiz-adv-x="1202" unicode="J" d="M6 426l346 72q14 -82 73 -123t134 -41q70 0 123 39t53 100v645h-329v332h692v-977q0 -114 -47.5 -209t-126 -156t-176.5 -94.5t-203 -33.5q-96 0 -184.5 27t-163 80t-125.5 140.5t-66 198.5z"/>
<glyph glyph-name="K" horiz-adv-x="1310" unicode="K" d="M115 0v1450h368v-537l394 537h456l-573 -700l571 -750h-465l-370 518l-13 -16v-502h-368z"/>
<glyph glyph-name="L" horiz-adv-x="1101" unicode="L" d="M115 0v1450h368v-1088h590v-362h-958z"/>
<glyph glyph-name="M" horiz-adv-x="1574" unicode="M" d="M115 0v1450h366l305 -709l308 709h366v-1450h-368l2 418l22 293l-12 2l-191 -498h-251l-195 498l-10 -2l24 -293v-418h-366z"/>
<glyph glyph-name="N" horiz-adv-x="1384" unicode="N" d="M115 0v1450h348l350 -619l123 -290l10 2q-1 0 -20.5 125t-20.5 125v657h365v-1450h-371l-328 571l-127 291l-10 -2l47 -280v-580h-366z"/>
<glyph glyph-name="O" horiz-adv-x="1361" unicode="O" d="M446 477q0 -75 70 -116.5t166 -41.5q95 0 164 42t69 116v496q0 54 -35.5 92t-88.5 55t-115 17q-92 0 -161 -44.5t-69 -119.5v-496zM80 477v496q0 97 33.5 179.5t91 140t134.5 98t163 60t178 19.5t178.5 -19.5t163.5 -60t135 -98.5t91.5 -140t33.5 -179v-496 q0 -97 -33.5 -179t-91 -140t-134.5 -98.5t-163 -60t-178 -19.5t-178.5 19.5t-163.5 60t-135 98.5t-91.5 140t-33.5 179z"/>
<glyph glyph-name="P" horiz-adv-x="1265" unicode="P" d="M481 750h213q45 0 81 19.5t54.5 51t26.5 69.5q4 19 4 38q0 20 -4 40q-8 38 -26.5 69.5t-54.5 51t-81 19.5h-213v-358zM115 0v1450h579q103 0 190.5 -28.5t149.5 -78t105.5 -115t64.5 -139t21 -151.5q0 -99 -34 -189.5t-98.5 -164t-167 -117t-229.5 -43.5h-215v-424h-366z "/>
<glyph glyph-name="Q" horiz-adv-x="1361" unicode="Q" d="M446 477q0 -48 28 -87.5t70 -59t92 -24.5q10 -1 19 -1q40 0 76 17l-119 122l203 177l100 -103v455q0 53 -34.5 92t-86.5 56t-110 17h-4q-60 -1 -112.5 -18.5t-87 -56t-34.5 -90.5v-496zM80 477v496q0 97 33.5 179.5t91 140t134.5 98t163 60t178 19.5t178.5 -19.5 t163.5 -60t135 -98.5t91.5 -140t33.5 -179v-496q0 -141 -74 -256l113 -115l-203 -182l-119 123q-143 -67 -317 -67q-92 0 -178.5 19.5t-163.5 60t-135 98.5t-91.5 140t-33.5 179z"/>
<glyph glyph-name="R" horiz-adv-x="1323" unicode="R" d="M485 776h215q55 0 95.5 24.5t59 61.5t18.5 80t-18.5 80t-59 61.5t-95.5 24.5h-215v-332zM115 0v1450h579q115 0 209.5 -27.5t168.5 -83t116 -149t45 -217.5q0 -196 -74.5 -314t-210.5 -161l395 -498h-456l-336 461h-66v-461h-370z"/>
<glyph glyph-name="S" horiz-adv-x="1155" unicode="S" d="M45 242l231 217q42 -51 104 -85.5t124 -45.5q41 -7 80 -7q20 -1 38 1q56 6 91 34q39 31 39 78q0 36 -36 66q-38 32 -92.5 49t-119.5 26q-90 14 -168.5 49.5t-142 91t-100 138t-36.5 182.5q0 103 44.5 187.5t118.5 137t167.5 81t194.5 28.5q145 0 267.5 -51.5 t227.5 -179.5l-239 -184q-54 59 -128 89q-69 29 -129 29h-7q-62 -2 -107 -36t-47 -95q5 -94 192 -135q61 -11 110 -23.5t104 -33t96.5 -45.5t80 -62.5t62.5 -83.5q24 -47 37 -109q10 -47 10 -99v-10v-27q-3 -82 -38.5 -153t-92 -121.5t-129.5 -87t-152.5 -54.5t-160.5 -18 q-134 0 -264.5 67.5t-229.5 194.5z"/>
<glyph glyph-name="T" horiz-adv-x="1198" unicode="T" d="M29 1104v348h1140v-348h-385v-1104h-370v1104h-385z"/>
<glyph glyph-name="U" horiz-adv-x="1366" unicode="U" d="M106 485v965h371v-965q0 -48 23 -85.5t59.5 -57t80.5 -28.5q22 -4 44 -4.5t44 4.5q44 9 81 28.5t60.5 57t23.5 85.5v965h371v-965q0 -140 -64.5 -250t-166.5 -166.5t-226 -82.5q-62 -13 -94 -13.5t-34 -0.5q-59 0 -119 14q-123 26 -225 82.5t-165.5 166.5t-63.5 250z"/>
<glyph glyph-name="V" horiz-adv-x="1343" unicode="V" d="M-18 1452h393l227 -709l66 -344h6l65 342l230 711h393l-522 -1450h-336z"/>
<glyph glyph-name="W" horiz-adv-x="1873" unicode="W" d="M0 1450h381l172 -694l37 -307h10l35 305l162 508h278l150 -510l47 -303h6l41 303l176 698h379l-418 -1450h-340l-129 401l-51 332h-6l-56 -330l-114 -403h-340z"/>
<glyph glyph-name="X" horiz-adv-x="1343" unicode="X" d="M-6 0l407 723l-407 727h428l248 -496l254 496h426l-406 -727l406 -723h-426l-254 494l-248 -494h-428z"/>
<glyph glyph-name="Y" horiz-adv-x="1341" unicode="Y" d="M-18 1450h426l262 -532l262 532h430l-508 -879v-571h-367v571z"/>
<glyph glyph-name="Z" horiz-adv-x="1239" unicode="Z" d="M29 135l626 975h-581v340h1054l78 -123l-624 -993l589 4v-338h-1075z"/>
<glyph glyph-name="bracketleft" horiz-adv-x="671" unicode="[" d="M102 -205v1659h492v-340h-141v-981h141v-338h-492z"/>
<glyph glyph-name="backslash" horiz-adv-x="1030" unicode="\" d="M39 1456l330 115l622 -1579l-325 -111z"/>
<glyph glyph-name="bracketright" horiz-adv-x="671" unicode="]" d="M78 129h137v991h-137v334h491v-1659h-491v334z"/>
<glyph glyph-name="asciicircum" horiz-adv-x="1335" unicode="^" d="M53 827l506 621h201l520 -621h-424l-199 236l-194 -236h-410z"/>
<glyph glyph-name="underscore" horiz-adv-x="1214" unicode="_" d="M92 70h1032v-346h-1032v346z"/>
<glyph glyph-name="grave" horiz-adv-x="831" unicode="`" d="M41 1888h381l205 -340h-318z"/>
<glyph glyph-name="a" horiz-adv-x="1327" unicode="a" d="M553 616h217l-100 424h-11zM-12 0l506 1450h333l519 -1450h-394l-94 291h-387l-90 -291h-393z"/>
<glyph glyph-name="b" horiz-adv-x="1277" unicode="b" d="M483 883h213q43 0 74.5 19t45.5 48q15 30 16 64q0 32 -14 60q-14 29 -46 48t-76 19h-213v-258zM483 322h213q63 0 106 30q42 30 52 74q5 21 5 43q1 23 -5 45q-10 44 -53 74t-105 30h-213v-296zM115 0v1450h581q138 0 246 -52t168 -154q57 -95 58 -219q0 -8 -1 -17 q-2 -60 -40 -130t-109 -106q57 -29 99.5 -69t64.5 -82q21 -41 34 -87q12 -41 12 -77v-8q-2 -39 -5 -74q-60 -375 -516 -375h-592z"/>
<glyph glyph-name="c" horiz-adv-x="1191" unicode="c" d="M80 475v500q0 119 49 215t131 156t184 92t213 32q71 0 139 -16.5t137.5 -52.5t130.5 -103.5t103 -160.5l-299 -121q-35 64 -107 94q-55 23 -109 23h-4q-14 1 -28 -1q-69 -8 -121.5 -50t-52.5 -107v-500q0 -50 34.5 -88.5t86.5 -52.5q42 -11 86 -11q11 1 22 1q56 4 106 38 t73 91l320 -148q-44 -85 -106.5 -149.5t-133 -102t-141.5 -55.5t-142 -18q-109 0 -210 31.5t-182 91.5t-130 156.5t-49 215.5z"/>
<glyph glyph-name="d" horiz-adv-x="1302" unicode="d" d="M483 344h187q91 0 136.5 42.5t45.5 115.5v452q0 72 -46 113t-136 41h-187v-764zM115 0v1450h542q89 0 170.5 -17.5t153.5 -56t125 -94.5t84 -137t31 -180v-488q0 -97 -31 -177.5t-84 -135.5t-125 -93q-71 -38 -153 -55q-77 -16 -161 -16h-10h-542z"/>
<glyph glyph-name="e" d="M115 0v1450h1009v-344h-639v-225h588v-318h-588v-217h639v-346h-1009z" unicode="e"/>
<glyph glyph-name="f" horiz-adv-x="1179" unicode="f" d="M115 0v1450h1009v-348h-639v-260h559v-342h-559v-500h-370z"/>
<glyph glyph-name="g" horiz-adv-x="1275" unicode="g" d="M80 481v498q0 119 49 214.5t130.5 154.5t182.5 90.5t211 31.5q74 0 145 -16.5t139.5 -51t126 -96.5t93.5 -145l-307 -141q-23 56 -72.5 89t-105.5 35q-7 1 -15 1q-47 0 -91 -13q-52 -16 -86 -57t-34 -96v-498q0 -54 31.5 -94t78.5 -57.5t102 -17.5t102 18t78.5 57.5 t31.5 93.5v54h-231v307h584v-361q0 -121 -48 -218.5t-128.5 -158t-181.5 -92.5t-212 -32q-110 0 -211 32t-182.5 92.5t-130.5 158t-49 218.5z"/>
<glyph glyph-name="h" horiz-adv-x="1384" unicode="h" d="M115 0v1450h368v-549h418v549h369v-1450h-369v547h-418v-547h-368z"/>
<glyph glyph-name="i" horiz-adv-x="595" unicode="i" d="M115 0v1450h366v-1450h-366z"/>
<glyph glyph-name="j" horiz-adv-x="1202" unicode="j" d="M6 426l346 72q14 -82 73 -123t134 -41q70 0 123 39t53 100v645h-329v332h692v-977q0 -114 -47.5 -209t-126 -156t-176.5 -94.5t-203 -33.5q-96 0 -184.5 27t-163 80t-125.5 140.5t-66 198.5z"/>
<glyph glyph-name="k" horiz-adv-x="1310" unicode="k" d="M115 0v1450h368v-537l394 537h456l-573 -700l571 -750h-465l-370 518l-13 -16v-502h-368z"/>
<glyph glyph-name="l" horiz-adv-x="1101" unicode="l" d="M115 0v1450h368v-1088h590v-362h-958z"/>
<glyph glyph-name="m" horiz-adv-x="1574" unicode="m" d="M115 0v1450h366l305 -709l308 709h366v-1450h-368l2 418l22 293l-12 2l-191 -498h-251l-195 498l-10 -2l24 -293v-418h-366z"/>
<glyph glyph-name="n" horiz-adv-x="1384" unicode="n" d="M115 0v1450h348l350 -619l123 -290l10 2q-1 0 -20.5 125t-20.5 125v657h365v-1450h-371l-328 571l-127 291l-10 -2l47 -280v-580h-366z"/>
<glyph glyph-name="o" horiz-adv-x="1361" unicode="o" d="M446 477q0 -75 70 -116.5t166 -41.5q95 0 164 42t69 116v496q0 54 -35.5 92t-88.5 55t-115 17q-92 0 -161 -44.5t-69 -119.5v-496zM80 477v496q0 97 33.5 179.5t91 140t134.5 98t163 60t178 19.5t178.5 -19.5t163.5 -60t135 -98.5t91.5 -140t33.5 -179v-496 q0 -97 -33.5 -179t-91 -140t-134.5 -98.5t-163 -60t-178 -19.5t-178.5 19.5t-163.5 60t-135 98.5t-91.5 140t-33.5 179z"/>
<glyph glyph-name="p" horiz-adv-x="1265" unicode="p" d="M481 750h213q45 0 81 19.5t54.5 51t26.5 69.5q5 20 5 39t-5 39q-8 38 -26.5 69.5t-54.5 51t-81 19.5h-213v-358zM115 0v1450h579q103 0 190.5 -28.5t149.5 -78t105.5 -115t64.5 -139t21 -151.5q0 -99 -34 -189.5t-98.5 -164t-167 -117t-229.5 -43.5h-215v-424h-366z"/>
<glyph glyph-name="q" horiz-adv-x="1361" unicode="q" d="M446 477q0 -48 28 -87.5t70 -59t92 -24.5q10 -1 19 -1q40 0 76 17l-119 122l203 177l100 -103v455q0 53 -34.5 92t-86.5 56t-110 17h-4q-60 -1 -112.5 -18.5t-87 -56t-34.5 -90.5v-496zM80 477v496q0 97 33.5 179.5t91 140t134.5 98t163 60t178 19.5t178.5 -19.5 t163.5 -60t135 -98.5t91.5 -140t33.5 -179v-496q0 -141 -74 -256l113 -115l-203 -182l-119 123q-143 -67 -317 -67q-92 0 -178.5 19.5t-163.5 60t-135 98.5t-91.5 140t-33.5 179z"/>
<glyph glyph-name="r" horiz-adv-x="1323" unicode="r" d="M485 776h215q55 0 95.5 24.5t59 61.5t18.5 80t-18.5 80t-59 61.5t-95.5 24.5h-215v-332zM115 0v1450h579q115 0 209.5 -27.5t168.5 -83t116 -149t45 -217.5q0 -196 -74.5 -314t-210.5 -161l395 -498h-456l-336 461h-66v-461h-370z"/>
<glyph glyph-name="s" horiz-adv-x="1155" unicode="s" d="M45 242l231 217q42 -51 104 -85.5t124 -45.5q41 -7 80 -7q20 -1 38 1q56 6 91 34q39 31 39 78q0 36 -36 66q-38 32 -92.5 49t-119.5 26q-90 14 -168.5 49.5t-142 91t-100 138t-36.5 182.5q0 103 44.5 187.5t118.5 137t167.5 81t194.5 28.5q145 0 267.5 -51.5 t227.5 -179.5l-239 -184q-54 59 -128 89q-69 29 -129 29h-7q-62 -2 -107 -36t-47 -95q5 -94 192 -135q61 -11 110 -23.5t104 -33t96.5 -45.5t80 -62.5t62.5 -83.5q24 -47 37 -109q10 -47 10 -99v-10v-27q-3 -82 -38.5 -153t-92 -121.5t-129.5 -87t-152.5 -54.5t-160.5 -18 q-134 0 -264.5 67.5t-229.5 194.5z"/>
<glyph glyph-name="t" horiz-adv-x="1198" unicode="t" d="M29 1104v348h1140v-348h-385v-1104h-370v1104h-385z"/>
<glyph glyph-name="u" horiz-adv-x="1366" unicode="u" d="M106 485v965h371v-965q0 -48 23 -85.5t59.5 -57t80.5 -28.5q22 -4 44 -4.5t44 4.5q44 9 81 28.5t60.5 57t23.5 85.5v965h371v-965q0 -140 -64.5 -250t-166.5 -166.5t-226 -82.5q-62 -13 -94 -13.5t-34 -0.5q-59 0 -119 14q-123 26 -225 82.5t-165.5 166.5t-63.5 250z"/>
<glyph glyph-name="v" horiz-adv-x="1343" unicode="v" d="M-18 1452h393l227 -709l66 -344h6l65 342l230 711h393l-522 -1450h-336z"/>
<glyph glyph-name="w" horiz-adv-x="1873" unicode="w" d="M0 1450h381l172 -694l37 -307h10l35 305l162 508h278l150 -510l47 -303h6l41 303l176 698h379l-418 -1450h-340l-129 401l-51 332h-6l-56 -330l-114 -403h-340z"/>
<glyph glyph-name="x" horiz-adv-x="1343" unicode="x" d="M-6 0l407 723l-407 727h428l248 -496l254 496h426l-406 -727l406 -723h-426l-254 494l-248 -494h-428z"/>
<glyph glyph-name="y" horiz-adv-x="1341" unicode="y" d="M-18 1450h426l262 -532l262 532h430l-508 -879v-571h-367v571z"/>
<glyph glyph-name="z" horiz-adv-x="1239" unicode="z" d="M29 135l626 975h-581v340h1054l78 -123l-624 -993l589 4v-338h-1075z"/>
<glyph glyph-name="braceleft" horiz-adv-x="718" unicode="{" d="M59 446v334q60 0 85.5 30t25.5 77v250q0 155 69 236t234 81h168v-334h-121v-264q0 -69 -41.5 -143t-105.5 -99q69 -25 108 -94.5t39 -148.5v-242h121v-334h-184q-161 0 -224 79t-63 237v227q0 108 -111 108z"/>
<glyph glyph-name="bar" horiz-adv-x="550" unicode="|" d="M102 -276v1759h347v-1759h-347z"/>
<glyph glyph-name="braceright" horiz-adv-x="704" unicode="}" d="M80 113h104v258v12q0 70 46.5 139.5t111.5 93.5q-64 30 -111.5 96t-47.5 129q0 8 1 15v260h-104v334h141q83 0 140.5 -15.5t90.5 -40t51 -67.5t23.5 -86t5.5 -108v-246q0 -107 113 -107v-334q-113 0 -113 -108v-244q0 -78 -13 -132t-46.5 -97.5t-97 -64.5t-158.5 -21 h-137v334z"/>
<glyph glyph-name="asciitilde" horiz-adv-x="999" unicode="~" d="M51 590q73 107 150.5 170t169.5 63q47 0 94.5 -23.5t79 -47.5t55 -34t36.5 -10q19 0 45 15.5t60 77.5l209 -174q-147 -252 -329 -252q-42 0 -85 20t-73 40.5t-61 33.5t-61.5 -2.5t-61.5 -67.5z"/>
<glyph glyph-name="uni00A0" horiz-adv-x="372" unicode=" "/>
<glyph glyph-name="cent" horiz-adv-x="978" unicode="¢" d="M82 375v309q0 149 86 244.5t221 128.5v145h262v-149q199 -60 258 -271l-291 -90q-8 37 -31 60.5t-50.5 28t-54 -2.5t-44.5 -30.5t-18 -55.5v-323q0 -33 18 -56t45.5 -29.5t56.5 -2t54.5 27t36.5 58.5l299 -68q-37 -118 -111 -189t-168 -102v-149h-262v143 q-135 33 -221 128.5t-86 244.5z"/>
<glyph glyph-name="sterling" horiz-adv-x="1085" unicode="£" d="M76 0v324h160v229h-160v313h160v154q0 62 13 120.5t45 116.5t80.5 101t126 69.5t175.5 26.5q87 0 182 -42t168 -128l-203 -194q-41 45 -72.5 47.5t-37.5 2.5q-49 0 -88 -34t-39 -96v-144h344v-313h-344v-229h422v-324h-932z"/>
<glyph glyph-name="yen" horiz-adv-x="1458" unicode="¥" d="M39 1450h426l262 -553l262 553h430l-411 -711h145l-47 -221h-195v-63h242l-47 -222h-195v-233h-366v233h-223l45 222h178v63h-223l45 221h82z"/>
<glyph glyph-name="dieresis" horiz-adv-x="1044" unicode="¨" d="M596 1708q0 74 49 124t123 50t124 -50t50 -124q0 -71 -50.5 -120.5t-123.5 -49.5q-74 0 -123 49.5t-49 120.5zM102 1708q0 73 50 123.5t122 50.5t122 -50.5t50 -123.5q0 -71 -50 -120.5t-122 -49.5t-122 49.5t-50 120.5z"/>
<glyph glyph-name="copyright" horiz-adv-x="1593" unicode="©" d="M406 600v227q0 67 22 123t60 96t88 68t107 40q56 13 116 13q83 0 158 -24t139 -85t90 -151l-193 -73q-15 52 -57 86t-92 40q-17 2 -35 1q-33 -1 -65 -7q-48 -10 -84 -44t-42 -81v-231q5 -39 31 -69q26 -29 63 -45t81 -18h12q37 0 71 10q40 12 72 42t45 76l197 -74 q-19 -68 -61 -120q-43 -52 -97 -82t-113 -44t-120 -14q-60 0 -116 13q-57 13 -107 41t-88 66q-38 40 -60 96t-22 124zM272 719q0 -143 70 -264t192 -191t265 -71q143 1 263 71t190 191t69 264q0 145 -70 265t-190 190t-262 69q-219 -1 -373 -153t-154 -371zM61 719 q1 148 59 284t157 235q99 100 236 158t286 58q148 0 284 -58t234 -158q99 -99 157 -235t58 -284q0 -200 -98 -369q-98 -170 -268 -268q-169 -98 -367 -98q-121 0 -233 37t-202 105t-160 158q-68 90 -106 203q-38 112 -37 232z"/>
<glyph glyph-name="guillemotleft" horiz-adv-x="1253" unicode="«" d="M567 588l328 485l297 -176l-213 -313l217 -308l-301 -178zM39 588l328 485l297 -176l-211 -309l213 -314l-301 -176z"/>
<glyph glyph-name="uni00AD" horiz-adv-x="827" unicode="­" d="M94 420v348h639v-348h-639z"/>
<glyph glyph-name="registered" horiz-adv-x="1593" unicode="®" d="M700 750h125q31 0 52 16t25 39t-1 45.5t-26.5 38.5t-51.5 16h-123v-155zM500 346v733h331q79 0 140 -29t93.5 -74.5t40.5 -86.5t8 -67q0 -29 -9.5 -69.5t-46 -85.5t-92.5 -67l176 -254h-238l-160 240h-43v-240h-200zM281 719q0 -106 41.5 -202.5t111 -166.5t166.5 -111.5 t203 -41.5q140 0 259.5 70t189 190.5t69.5 261.5q0 106 -41 202.5t-110.5 166t-165.5 110.5t-201 41q-107 0 -203.5 -41t-166.5 -110.5t-111 -166t-41 -202.5zM61 719q0 148 58.5 284t157.5 235t236 157.5t286 58.5q148 0 284 -58.5t234 -157.5t156.5 -235t58.5 -284 q0 -200 -98.5 -369t-267.5 -267.5t-367 -98.5q-120 0 -232.5 37t-203 105t-159 158.5t-106 202.5t-37.5 232z"/>
<glyph glyph-name="acute" horiz-adv-x="790" unicode="´" d="M205 1548l205 340h381l-269 -340h-317z"/>
<glyph glyph-name="cedilla" horiz-adv-x="788" unicode="¸" d="M102 -416l66 176q47 -32 88 -47t71 -15q11 0 35 4t33 40q2 7 2 14q0 28 -40 57t-117 35l104 234h256l-65 -145q79 -21 118 -72.5t39 -107.5q0 -6 -2.5 -41t-34 -95.5t-100.5 -100.5t-154 -40q-173 0 -299 104z"/>
<glyph glyph-name="guillemotright" horiz-adv-x="1232" unicode="»" d="M569 899l301 174l326 -485l-328 -490l-297 178l211 312zM57 274l215 314l-211 309l295 178l330 -487l-326 -488z"/>
<glyph glyph-name="circumflex" horiz-adv-x="1026" unicode="ˆ" d="M82 1548l315 344h240l307 -344h-332l-94 107l-90 -107h-346z"/>
<glyph glyph-name="tilde" horiz-adv-x="952" unicode="˜" d="M102 1626q23 123 87.5 182.5t162.5 59.5h10q32 -1 71 -16.5t69.5 -31t61 -24.5t56 5.5t44.5 58.5l186 -107q-29 -114 -83 -172.5t-128 -58.5h-2q-43 0 -91 16t-82.5 31.5t-57.5 21.5t-34 6q-21 0 -44.5 -13t-46.5 -58z"/>
<glyph glyph-name="afii10023" d="M707 1708q0 74 49 124t123 50q73 0 123.5 -50t50.5 -124q0 -71 -50.5 -120.5t-123.5 -49.5q-74 0 -123 49.5t-49 120.5zM213 1708q0 73 50 123.5t122 50.5t122 -50.5t50 -123.5q0 -71 -50 -120.5t-122 -49.5t-122 49.5t-50 120.5zM115 0v1450h1009v-344h-639v-225h588 v-318h-588v-217h639v-346h-1009z" unicode="Ё"/>
<glyph glyph-name="afii10017" horiz-adv-x="1327" unicode="А" d="M553 616h217l-100 424h-11zM-12 0l506 1450h333l519 -1450h-394l-94 291h-387l-90 -291h-393z"/>
<glyph glyph-name="afii10018" horiz-adv-x="1261" unicode="Б" d="M483 322h213q89 0 127.5 44t38.5 126q0 159 -168 159h-211v-329zM115 0v1450h991v-307h-623v-225h213q120 0 210 -19t150.5 -54t98 -90.5t54 -124t16.5 -157.5q0 -218 -138.5 -345.5t-379.5 -127.5h-592z"/>
<glyph glyph-name="afii10019" horiz-adv-x="1282" unicode="В" d="M483 883h213q43 0 74.5 19t46.5 48.5t15 63.5q0 32 -14 60.5t-46 47.5t-76 19h-213v-258zM483 322h213q63 0 105.5 30.5t50 63t7.5 53.5q0 22 -8 55t-50.5 63.5t-104.5 30.5h-213v-296zM115 0v1450h581q138 0 246 -52t166.5 -150.5t58.5 -222.5v-17q-2 -60 -40 -130 t-109 -106q57 -29 99.5 -69t64 -82t34 -85t12.5 -79q0 -4 -1 -25.5t-4 -56.5q-60 -375 -516 -375h-592z"/>
<glyph glyph-name="afii10020" horiz-adv-x="1044" unicode="Г" d="M115 0v1450h903v-348h-535v-1102h-368z"/>
<glyph glyph-name="afii10021" horiz-adv-x="1527" unicode="Д" d="M606 330h338v772h-246l-30 -440q-11 -200 -62 -332zM37 -291v621q54 0 96 15t71 39.5t49.5 65.5t32.5 82t20 100.5t12 110.5t8 122q1 22 1.5 34t2 31t2.5 35l35 485h946v-1120h176v-621h-369v291h-708v-291h-375z"/>
<glyph glyph-name="afii10022" d="M115 0v1450h1009v-344h-639v-225h588v-318h-588v-217h639v-346h-1009z" unicode="Е"/>
<glyph glyph-name="afii10024" horiz-adv-x="1941" unicode="Ж" d="M-18 1450h442l362 -543v543h369v-543l363 543h442l-518 -713l516 -737h-457l-334 549l-12 -17v-532h-369v532l-12 17l-334 -549h-456l516 737z"/>
<glyph glyph-name="afii10025" horiz-adv-x="1167" unicode="З" d="M-2 264l233 182q61 -68 135 -106.5t142 -38.5q112 0 172.5 39.5t60.5 116.5q0 78 -49.5 122t-138.5 44h-215v251h207q82 0 128 40t46 112q0 63 -47 100t-137 37q-70 0 -143 -32.5t-122 -69.5l-192 188q180 221 483 221q240 0 370 -110t130 -309q0 -77 -42.5 -159.5 t-115.5 -119.5q107 -54 157 -143.5t50 -194.5q0 -215 -153.5 -334.5t-428.5 -119.5q-168 0 -308 75t-222 209z"/>
<glyph glyph-name="afii10026" horiz-adv-x="1402" unicode="И" d="M115 0v1450h368v-657l-30 -218l8 -2l121 261l370 616h336v-1450h-368v580l36 272l-10 2l-137 -283l-348 -571h-346z"/>
<glyph glyph-name="afii10027" horiz-adv-x="1402" unicode="Й" d="M322 1925h284q0 -38 24.5 -61t61.5 -23t61.5 23t24.5 61h285q0 -113 -54 -196t-136.5 -121.5t-180.5 -38.5q-72 0 -138 23t-118 66t-83 112t-31 155zM115 0v1450h368v-657l-30 -218l8 -2l121 261l370 616h336v-1450h-368v580l36 272l-10 2l-137 -283l-348 -571h-346z"/>
<glyph glyph-name="afii10028" horiz-adv-x="1310" unicode="К" d="M115 0v1450h368v-537l394 537h456l-573 -713l571 -737h-461l-374 518l-13 -16v-502h-368z"/>
<glyph glyph-name="afii10029" horiz-adv-x="1452" unicode="Л" d="M35 0v342h18q33 0 66 6.5t60 20.5t48.5 40.5t35.5 51.5t25 66.5t17 74t11 84.5t7 88.5t5 95t6 95.5l35 485h968v-1450h-368v1102h-269l-24 -440q-6 -107 -28 -203t-70 -188t-118 -155.5t-163 -91.5t-183 -28q-38 0 -79 4z"/>
<glyph glyph-name="afii10030" horiz-adv-x="1574" unicode="М" d="M115 0v1450h366l305 -709l308 709h366v-1450h-368l2 418l22 293l-12 2l-191 -498h-251l-195 498l-10 -2l24 -293v-418h-366z"/>
<glyph glyph-name="afii10031" horiz-adv-x="1384" unicode="Н" d="M115 0v1450h368v-549h418v549h369v-1450h-369v547h-418v-547h-368z"/>
<glyph glyph-name="afii10032" horiz-adv-x="1361" unicode="О" d="M446 477q0 -75 70 -116.5t166 -41.5q95 0 164 42t69 116v496q0 54 -35.5 92t-88.5 55t-115 17q-92 0 -161 -44.5t-69 -119.5v-496zM80 477v496q0 97 33.5 179.5t91 140t134.5 98t163 60t178 19.5t178.5 -19.5t163.5 -60t135 -98.5t91.5 -140t33.5 -179v-496 q0 -97 -33.5 -179t-91 -140t-134.5 -98.5t-163 -60t-178 -19.5t-178.5 19.5t-163.5 60t-135 98.5t-91.5 140t-33.5 179z"/>
<glyph glyph-name="afii10033" horiz-adv-x="1374" unicode="П" d="M115 0v1450h1145v-1450h-369v1102h-408v-1102h-368z"/>
<glyph glyph-name="afii10034" horiz-adv-x="1265" unicode="Р" d="M481 750h213q45 0 81 19.5t54.5 51t25 60.5t6.5 48t-6.5 48t-25 60.5t-54.5 51t-81 19.5h-213v-358zM115 0v1450h579q103 0 190.5 -28.5t149.5 -78t105.5 -115t64.5 -139t21 -151.5q0 -99 -34 -189.5t-98.5 -164t-167 -117t-229.5 -43.5h-215v-424h-366z"/>
<glyph glyph-name="afii10035" horiz-adv-x="1191" unicode="С" d="M80 475v500q0 119 49 215t131 156t184 92t213 32q71 0 139 -16.5t137.5 -52.5t130.5 -103.5t103 -160.5l-299 -121q-35 64 -99.5 90.5t-120.5 26.5q-14 0 -55.5 -4.5t-94 -46.5t-52.5 -107v-500q0 -50 34.5 -88.5t81.5 -51t91 -12.5q11 0 44.5 2t83.5 36.5t73 91.5 l320 -148q-44 -85 -106.5 -149.5t-133 -102t-141.5 -55.5t-142 -18q-109 0 -210 31.5t-182 91.5t-130 156.5t-49 215.5z"/>
<glyph glyph-name="afii10036" horiz-adv-x="1198" unicode="Т" d="M29 1104v348h1140v-348h-385v-1104h-370v1104h-385z"/>
<glyph glyph-name="afii10037" horiz-adv-x="1228" unicode="У" d="M-55 1450h415l144 -315l98 -263h10l109 283l131 295h408l-656 -1450h-395l213 469z"/>
<glyph glyph-name="afii10038" horiz-adv-x="1646" unicode="Ф" d="M997 451q49 0 86.5 6t71.5 21t52 45.5t18 74.5v254q0 44 -18 74.5t-52 45.5t-71.5 21t-86.5 6v-548zM422 598q0 -84 61.5 -115.5t165.5 -31.5v548q-104 0 -165.5 -31.5t-61.5 -115.5v-254zM53 600v250q0 101 33.5 182.5t89.5 136.5t133 92t162 53.5t178 16.5v119h348 v-119q93 0 178 -16.5t162 -53.5t133 -92t89.5 -136.5t33.5 -182.5v-250q0 -101 -33.5 -182.5t-89.5 -136.5t-133 -92t-162 -53.5t-178 -16.5v-119h-348v119q-93 0 -178 16.5t-162 53.5t-133 92t-89.5 136.5t-33.5 182.5z"/>
<glyph glyph-name="afii10039" horiz-adv-x="1343" unicode="Х" d="M-6 0l407 723l-407 727h428l248 -496l254 496h426l-406 -727l406 -723h-426l-254 494l-248 -494h-428z"/>
<glyph glyph-name="afii10040" horiz-adv-x="1464" unicode="Ц" d="M115 0v1450h368v-1102h396v1102h368v-1102h176v-639h-348v291h-960z"/>
<glyph glyph-name="afii10041" horiz-adv-x="1308" unicode="Ч" d="M66 901v549h368v-549q0 -70 41.5 -108.5t116.5 -40.5q68 0 131 17.5t100 51.5l2 629h369v-1450h-369v485q-38 -33 -110.5 -57.5t-153.5 -24.5q-98 0 -186 32t-157.5 92.5t-110.5 157t-41 216.5z"/>
<glyph glyph-name="afii10042" horiz-adv-x="2023" unicode="Ш" d="M115 0v1450h368v-1102h344v1102h369v-1102h344v1102h369v-1450h-1794z"/>
<glyph glyph-name="afii10043" horiz-adv-x="2125" unicode="Щ" d="M115 0v1450h368v-1102h344v1102h369v-1102h344v1102h369v-1102h176v-639h-348v291h-1622z"/>
<glyph glyph-name="afii10044" horiz-adv-x="1462" unicode="Ъ" d="M680 322h217q45 0 77.5 15t50.5 41t26 56.5t8 67.5q0 79 -43 121.5t-119 42.5h-217v-344zM35 1102v348h645v-494h217q144 0 246.5 -32t162 -94t86.5 -143.5t27 -188.5q0 -219 -138 -358.5t-374 -139.5h-596v1102h-276z"/>
<glyph glyph-name="afii10045" horiz-adv-x="1873" unicode="Ы" d="M1393 0v1450h366v-1450h-366zM483 322h217q45 0 77.5 15t50.5 41t26 56.5t8 67.5q0 79 -43 121.5t-119 42.5h-217v-344zM115 0v1450h368v-494h217q144 0 247 -32t162.5 -94t86.5 -143.5t27 -188.5q0 -219 -138 -358.5t-374 -139.5h-596z"/>
<glyph glyph-name="afii10046" horiz-adv-x="1265" unicode="Ь" d="M483 322h217q45 0 77.5 15t50.5 41t26 56.5t8 67.5q0 79 -43 121.5t-119 42.5h-217v-344zM115 0v1450h368v-494h217q144 0 247 -32t162.5 -94t86.5 -143.5t27 -188.5q0 -219 -138 -358.5t-374 -139.5h-596z"/>
<glyph glyph-name="afii10047" d="M29 307l319 148q26 -65 84 -96t129 -31q80 2 137.5 42t57.5 107v103h-322v305h322v86q0 72 -61 114.5t-144 42.5q-68 0 -127 -29.5t-90 -86.5l-299 121q42 93 103 161t130 105t137.5 54t139.5 17q88 0 172 -20t157.5 -61.5t129 -100t88 -140t32.5 -177.5v-494 q0 -96 -32 -178t-87.5 -140t-129 -99t-155.5 -60.5t-169 -19.5q-71 0 -142 18.5t-141 56t-132.5 102.5t-106.5 150z" unicode="Э"/>
<glyph glyph-name="afii10048" horiz-adv-x="1994" unicode="Ю" d="M1077 485q0 -74 69.5 -115.5t164.5 -41.5q96 0 165.5 41t69.5 116v473q0 78 -69.5 121t-165.5 43q-95 -2 -164.5 -45.5t-69.5 -118.5v-473zM111 0v1450h368v-551h230v74q0 121 51.5 218t137 156.5t192 91t221.5 31.5q92 0 178.5 -19.5t164 -60.5t135.5 -98.5t92 -139.5 t34 -179v-496q0 -97 -33.5 -179t-91.5 -140t-135 -98.5t-163.5 -60t-178.5 -19.5t-178.5 19.5t-164 60.5t-135.5 98.5t-92 139.5t-34 179v86h-230v-563h-368z"/>
<glyph glyph-name="afii10049" horiz-adv-x="1323" unicode="Я" d="M451 944q0 -74 44.5 -121t129.5 -47h215v326h-215q-83 0 -128.5 -41.5t-45.5 -116.5zM-66 0l443 524q-66 23 -116 56t-92 84.5t-64.5 129.5t-22.5 179q6 228 151 352.5t398 124.5h577v-1450h-368v487h-60l-389 -487h-457z"/>
<glyph glyph-name="afii10065" horiz-adv-x="1327" unicode="а" d="M553 616h217l-100 424h-11zM-12 0l506 1450h333l519 -1450h-394l-94 291h-387l-90 -291h-393z"/>
<glyph glyph-name="afii10066" horiz-adv-x="1261" unicode="б" d="M483 322h213q89 0 127.5 44t38.5 126q0 159 -168 159h-211v-329zM115 0v1450h991v-307h-623v-225h213q120 0 210 -19t150.5 -54t98 -90.5t54 -124t16.5 -157.5q0 -218 -138.5 -345.5t-379.5 -127.5h-592z"/>
<glyph glyph-name="afii10067" horiz-adv-x="1282" unicode="в" d="M483 883h213q43 0 74.5 19t46.5 48.5t15 63.5q0 32 -14 60.5t-46 47.5t-76 19h-213v-258zM483 322h213q63 0 105.5 30.5t50 63t7.5 53.5q0 22 -8 55t-50.5 63.5t-104.5 30.5h-213v-296zM115 0v1450h581q138 0 246 -52t166.5 -150.5t58.5 -222.5v-17q-2 -60 -40 -130 t-109 -106q57 -29 99.5 -69t64 -82t34 -85t12.5 -79q0 -4 -1 -25.5t-4 -56.5q-60 -375 -516 -375h-592z"/>
<glyph glyph-name="afii10068" horiz-adv-x="1044" unicode="г" d="M115 0v1450h903v-348h-535v-1102h-368z"/>
<glyph glyph-name="afii10069" horiz-adv-x="1478" unicode="д" d="M563 330h352l-100 391l-72 319h-8l-63 -323zM33 -291v621h131l379 1120h387l391 -1120h127v-621h-373v291h-669v-291h-373z"/>
<glyph glyph-name="afii10070" d="M115 0v1450h1009v-344h-639v-225h588v-318h-588v-217h639v-346h-1009z" unicode="е"/>
<glyph glyph-name="afii10072" horiz-adv-x="1941" unicode="ж" d="M-18 1450h442l362 -543v543h369v-543l363 543h442l-518 -713l516 -737h-457l-334 549l-12 -17v-532h-369v532l-12 17l-334 -549h-456l516 737z"/>
<glyph glyph-name="afii10073" horiz-adv-x="1167" unicode="з" d="M-2 264l233 182q61 -68 135 -106.5t142 -38.5q112 0 172.5 39.5t60.5 116.5q0 78 -49.5 122t-138.5 44h-215v251h207q82 0 128 40t46 112q0 63 -47 100t-137 37q-70 0 -143 -32.5t-122 -69.5l-192 188q180 221 483 221q240 0 370 -110t130 -309q0 -77 -42.5 -159.5 t-115.5 -119.5q107 -54 157 -143.5t50 -194.5q0 -215 -153.5 -334.5t-428.5 -119.5q-168 0 -308 75t-222 209z"/>
<glyph glyph-name="afii10074" horiz-adv-x="1402" unicode="и" d="M115 0v1450h368v-657l-30 -218l8 -2l121 261l370 616h336v-1450h-368v580l36 272l-10 2l-137 -283l-348 -571h-346z"/>
<glyph glyph-name="afii10075" horiz-adv-x="1402" unicode="й" d="M322 1925h284q0 -38 24.5 -61t61.5 -23t61.5 23t24.5 61h285q0 -113 -54 -196t-136.5 -121.5t-180.5 -38.5q-72 0 -138 23t-118 66t-83 112t-31 155zM115 0v1450h368v-657l-30 -218l8 -2l121 261l370 616h336v-1450h-368v580l36 272l-10 2l-137 -283l-348 -571h-346z"/>
<glyph glyph-name="afii10076" horiz-adv-x="1310" unicode="к" d="M115 0v1450h368v-537l394 537h456l-573 -713l571 -737h-461l-374 518l-13 -16v-502h-368z"/>
<glyph glyph-name="afii10077" horiz-adv-x="1298" unicode="л" d="M-10 0l487 1450h338l500 -1450h-393l-183 616l-84 424h-12l-88 -424l-172 -616h-393z"/>
<glyph glyph-name="afii10078" horiz-adv-x="1574" unicode="м" d="M115 0v1450h366l305 -709l308 709h366v-1450h-368l2 418l22 293l-12 2l-191 -498h-251l-195 498l-10 -2l24 -293v-418h-366z"/>
<glyph glyph-name="afii10079" horiz-adv-x="1384" unicode="н" d="M115 0v1450h368v-549h418v549h369v-1450h-369v547h-418v-547h-368z"/>
<glyph glyph-name="afii10080" horiz-adv-x="1361" unicode="о" d="M446 477q0 -75 70 -116.5t166 -41.5q95 0 164 42t69 116v496q0 54 -35.5 92t-88.5 55t-115 17q-92 0 -161 -44.5t-69 -119.5v-496zM80 477v496q0 97 33.5 179.5t91 140t134.5 98t163 60t178 19.5t178.5 -19.5t163.5 -60t135 -98.5t91.5 -140t33.5 -179v-496 q0 -97 -33.5 -179t-91 -140t-134.5 -98.5t-163 -60t-178 -19.5t-178.5 19.5t-163.5 60t-135 98.5t-91.5 140t-33.5 179z"/>
<glyph glyph-name="afii10081" horiz-adv-x="1374" unicode="п" d="M115 0v1450h1145v-1450h-369v1102h-408v-1102h-368z"/>
<glyph glyph-name="afii10082" horiz-adv-x="1265" unicode="р" d="M481 750h213q45 0 81 19.5t54.5 51t25 60.5t6.5 48t-6.5 48t-25 60.5t-54.5 51t-81 19.5h-213v-358zM115 0v1450h579q103 0 190.5 -28.5t149.5 -78t105.5 -115t64.5 -139t21 -151.5q0 -99 -34 -189.5t-98.5 -164t-167 -117t-229.5 -43.5h-215v-424h-366z"/>
<glyph glyph-name="afii10083" horiz-adv-x="1191" unicode="с" d="M80 475v500q0 119 49 215t131 156t184 92t213 32q71 0 139 -16.5t137.5 -52.5t130.5 -103.5t103 -160.5l-299 -121q-35 64 -99.5 90.5t-120.5 26.5q-14 0 -55.5 -4.5t-94 -46.5t-52.5 -107v-500q0 -50 34.5 -88.5t81.5 -51t91 -12.5q11 0 44.5 2t83.5 36.5t73 91.5 l320 -148q-44 -85 -106.5 -149.5t-133 -102t-141.5 -55.5t-142 -18q-109 0 -210 31.5t-182 91.5t-130 156.5t-49 215.5z"/>
<glyph glyph-name="afii10084" horiz-adv-x="1198" unicode="т" d="M29 1104v348h1140v-348h-385v-1104h-370v1104h-385z"/>
<glyph glyph-name="afii10085" horiz-adv-x="1228" unicode="у" d="M-55 1450h415l144 -315l98 -263h10l109 283l131 295h408l-656 -1450h-395l213 469z"/>
<glyph glyph-name="afii10086" horiz-adv-x="1646" unicode="ф" d="M997 451q49 0 86.5 6t71.5 21t52 45.5t18 74.5v254q0 44 -18 74.5t-52 45.5t-71.5 21t-86.5 6v-548zM422 598q0 -84 61.5 -115.5t165.5 -31.5v548q-104 0 -165.5 -31.5t-61.5 -115.5v-254zM53 600v250q0 101 33.5 182.5t89.5 136.5t133 92t162 53.5t178 16.5v119h348 v-119q93 0 178 -16.5t162 -53.5t133 -92t89.5 -136.5t33.5 -182.5v-250q0 -101 -33.5 -182.5t-89.5 -136.5t-133 -92t-162 -53.5t-178 -16.5v-119h-348v119q-93 0 -178 16.5t-162 53.5t-133 92t-89.5 136.5t-33.5 182.5z"/>
<glyph glyph-name="afii10087" horiz-adv-x="1343" unicode="х" d="M-6 0l407 723l-407 727h428l248 -496l254 496h426l-406 -727l406 -723h-426l-254 494l-248 -494h-428z"/>
<glyph glyph-name="afii10088" horiz-adv-x="1464" unicode="ц" d="M115 0v1450h368v-1102h396v1102h368v-1102h176v-639h-348v291h-960z"/>
<glyph glyph-name="afii10089" horiz-adv-x="1308" unicode="ч" d="M66 901v549h368v-549q0 -70 41.5 -108.5t116.5 -40.5q68 0 131 17.5t100 51.5l2 629h369v-1450h-369v485q-38 -33 -110.5 -57.5t-153.5 -24.5q-98 0 -186 32t-157.5 92.5t-110.5 157t-41 216.5z"/>
<glyph glyph-name="afii10090" horiz-adv-x="2023" unicode="ш" d="M115 0v1450h368v-1102h344v1102h369v-1102h344v1102h369v-1450h-1794z"/>
<glyph glyph-name="afii10091" horiz-adv-x="2125" unicode="щ" d="M115 0v1450h368v-1102h344v1102h369v-1102h344v1102h369v-1102h176v-639h-348v291h-1622z"/>
<glyph glyph-name="afii10092" horiz-adv-x="1462" unicode="ъ" d="M680 322h217q45 0 77.5 15t50.5 41t26 56.5t8 67.5q0 79 -43 121.5t-119 42.5h-217v-344zM35 1102v348h645v-494h217q144 0 246.5 -32t162 -94t86.5 -143.5t27 -188.5q0 -219 -138 -358.5t-374 -139.5h-596v1102h-276z"/>
<glyph glyph-name="afii10093" horiz-adv-x="1873" unicode="ы" d="M1393 0v1450h366v-1450h-366zM483 322h217q45 0 77.5 15t50.5 41t26 56.5t8 67.5q0 79 -43 121.5t-119 42.5h-217v-344zM115 0v1450h368v-494h217q144 0 247 -32t162.5 -94t86.5 -143.5t27 -188.5q0 -219 -138 -358.5t-374 -139.5h-596z"/>
<glyph glyph-name="afii10094" horiz-adv-x="1265" unicode="ь" d="M483 322h217q45 0 77.5 15t50.5 41t26 56.5t8 67.5q0 79 -43 121.5t-119 42.5h-217v-344zM115 0v1450h368v-494h217q144 0 247 -32t162.5 -94t86.5 -143.5t27 -188.5q0 -219 -138 -358.5t-374 -139.5h-596z"/>
<glyph glyph-name="afii10095" d="M29 307l319 148q26 -65 84 -96t129 -31q80 2 137.5 42t57.5 107v103h-322v305h322v86q0 72 -61 114.5t-144 42.5q-68 0 -127 -29.5t-90 -86.5l-299 121q42 93 103 161t130 105t137.5 54t139.5 17q88 0 172 -20t157.5 -61.5t129 -100t88 -140t32.5 -177.5v-494 q0 -96 -32 -178t-87.5 -140t-129 -99t-155.5 -60.5t-169 -19.5q-71 0 -142 18.5t-141 56t-132.5 102.5t-106.5 150z" unicode="э"/>
<glyph glyph-name="afii10096" horiz-adv-x="1994" unicode="ю" d="M1077 485q0 -74 69.5 -115.5t164.5 -41.5q96 0 165.5 41t69.5 116v473q0 78 -69.5 121t-165.5 43q-95 -2 -164.5 -45.5t-69.5 -118.5v-473zM111 0v1450h368v-551h230v74q0 121 51.5 218t137 156.5t192 91t221.5 31.5q92 0 178.5 -19.5t164 -60.5t135.5 -98.5t92 -139.5 t34 -179v-496q0 -97 -33.5 -179t-91.5 -140t-135 -98.5t-163.5 -60t-178.5 -19.5t-178.5 19.5t-164 60.5t-135.5 98.5t-92 139.5t-34 179v86h-230v-563h-368z"/>
<glyph glyph-name="afii10097" horiz-adv-x="1323" unicode="я" d="M451 944q0 -74 44.5 -121t129.5 -47h215v326h-215q-83 0 -128.5 -41.5t-45.5 -116.5zM-66 0l443 524q-66 23 -116 56t-92 84.5t-64.5 129.5t-22.5 179q6 228 151 352.5t398 124.5h577v-1450h-368v487h-60l-389 -487h-457z"/>
<glyph glyph-name="afii10071" d="M707 1708q0 74 49 124t123 50q73 0 123.5 -50t50.5 -124q0 -71 -50.5 -120.5t-123.5 -49.5q-74 0 -123 49.5t-49 120.5zM213 1708q0 73 50 123.5t122 50.5t122 -50.5t50 -123.5q0 -71 -50 -120.5t-122 -49.5t-122 49.5t-50 120.5zM115 0v1450h1009v-344h-639v-225h588 v-318h-588v-217h639v-346h-1009z" unicode="ё"/>
<glyph glyph-name="uni2002" horiz-adv-x="1021" unicode=" "/>
<glyph glyph-name="uni2003" horiz-adv-x="2042" unicode=" "/>
<glyph glyph-name="uni2009" horiz-adv-x="408" unicode=" "/>
<glyph glyph-name="endash" horiz-adv-x="1169" unicode="–" d="M94 420v346h981v-346h-981z"/>
<glyph glyph-name="emdash" horiz-adv-x="1777" unicode="—" d="M94 420v346h1589v-346h-1589z"/>
<glyph glyph-name="quoteleft" horiz-adv-x="634" unicode="‘" d="M47 1008l232 444h321l-139 -444h-414z"/>
<glyph glyph-name="quotesinglbase" horiz-adv-x="604" unicode="‚" d="M-18 -213l151 449h399l-239 -449h-311z"/>
<glyph glyph-name="quotedblleft" horiz-adv-x="1114" unicode="“" d="M526 1008l232 444h321l-139 -444h-414zM47 1008l232 444h321l-139 -444h-414z"/>
<glyph glyph-name="quotedblright" horiz-adv-x="1085" unicode="”" d="M532 1024l119 422h414l-211 -422h-322zM59 1024l119 422h414l-211 -422h-322z"/>
<glyph glyph-name="ellipsis" horiz-adv-x="1607" unicode="…" d="M1141 195q0 85 58 143.5t144 58.5q89 0 147 -58.5t58 -143.5q0 -87 -58.5 -147t-146.5 -60q-86 0 -144 60t-58 147zM602 195q0 85 58 143.5t143 58.5q88 0 147.5 -58.5t59.5 -143.5q0 -87 -60 -147t-147 -60q-85 0 -143 60.5t-58 146.5zM59 195q0 85 59.5 143.5 t147.5 58.5q85 0 144 -58.5t59 -143.5q0 -86 -59 -146.5t-144 -60.5q-87 0 -147 60t-60 147z"/>
<glyph glyph-name="guilsinglleft" horiz-adv-x="722" unicode="‹" d="M39 588l328 487l295 -178l-211 -307q32 -49 107 -160.5t104 -157.5l-297 -174z"/>
<glyph glyph-name="guilsinglright" horiz-adv-x="722" unicode="›" d="M59 272l211 316l-209 309l297 176l326 -485l-322 -488z"/>
<glyph glyph-name="Euro" horiz-adv-x="1320" unicode="€" d="M51 457l45 221h82v63h-127l45 222h82v8q0 119 48 215.5t129 157.5t182.5 93.5t212.5 32.5q71 0 139.5 -17t137.5 -54t130 -105t103 -161l-299 -121q-35 64 -99.5 90.5t-120.5 26.5q-14 0 -55.5 -4.5t-94 -46.5t-52.5 -107v-8h364l-47 -222h-317v-63h364l-47 -221h-315 q7 -46 43.5 -79.5t79 -43t78.5 -9.5q17 0 52.5 3.5t82.5 37.5t69 89l320 -148q-85 -165 -228.5 -246t-294.5 -81q-107 0 -205 30.5t-177.5 88.5t-129 150.5t-53.5 207.5h-127z"/>
<glyph glyph-name="trademark" horiz-adv-x="1767" unicode="™" d="M821 596v856h281l141 -270l146 270h272v-856h-305l6 244l-86 -150h-51l-92 152l4 -246h-316zM59 1120v332h703v-332h-184v-528h-338v528h-181z"/>
</font>
</defs>
</svg>
